<?xml version="1.0" encoding="iso-8859-1"?>
<!-- Generator: Adobe Illustrator 19.0.0, SVG Export Plug-In . SVG Version: 6.00 Build 0)  -->
<svg version="1.1" id="Layer_1" xmlns="http://www.w3.org/2000/svg" xmlns:xlink="http://www.w3.org/1999/xlink" x="0px" y="0px"
	 viewBox="0 0 512.759 512.759" style="enable-background:new 0 0 512.759 512.759;" xml:space="preserve">
<path style="fill:#FFD15C;" d="M452.896,262.092c-27.733,8.533-42.667-10.667-42.667-10.667
	c-62.933-44.8-132.267,5.333-132.267,5.333c-78.933-57.6-140.8,16-140.8,16c6.4-9.6,10.667-55.467,10.667-55.467
	c6.4-57.6,30.933-108.8,30.933-108.8c4.267-24.533,32-21.333,32-21.333c12.8,9.6,27.733,10.667,27.733,10.667
	c25.6,7.467,30.933,0,30.933,0c4.267,16,13.867,9.6,13.867,9.6c19.2-9.6,5.333-25.6,5.333-25.6c-7.467-8.533,4.267-12.8,4.267-12.8
	c10.667-4.267,7.467-10.667,7.467-10.667l-25.6-57.6c-25.6-5.333-83.2,19.2-83.2,19.2c-49.067,10.667-68.267,68.267-68.267,68.267
	S-15.37,270.625,2.763,326.092c18.133,54.4,100.267,61.867,100.267,61.867c35.2,17.067,73.6,23.467,73.6,23.467
	c72.533,4.267,136.533-23.467,136.533-23.467c-1.067,43.733,28.8,81.067,44.8,98.133
	C385.696,465.825,475.296,390.092,452.896,262.092z"/>
<g>
	<path style="fill:#F8B64C;" d="M292.896,278.092c0,0,3.2,1.067,7.467,4.267c4.267,3.2,10.667,8.533,17.067,16
		c5.333,7.467,10.667,18.133,14.933,29.867s6.4,23.467,10.667,34.133c7.467,22.4,21.333,42.667,34.133,54.4
		c6.4,6.4,12.8,10.667,17.067,12.8c4.267,2.133,7.467,3.2,7.467,3.2s-3.2,0-8.533-1.067c-5.333-1.067-13.867-3.2-21.333-9.6
		c-8.533-5.333-17.067-12.8-24.533-22.4c-7.467-9.6-13.867-21.333-18.133-33.067s-6.4-25.6-8.533-36.267
		c-2.133-10.667-6.4-20.267-9.6-28.8c-4.267-8.533-7.467-14.933-11.733-18.133C296.096,279.159,292.896,278.092,292.896,278.092z"/>
	<path style="fill:#F8B64C;" d="M144.63,339.959c0,0,9.6,2.133,24.533,4.267c14.933,2.133,34.133,4.267,52.267,3.2
		c4.267,0,9.6,0,13.867-1.067s9.6-1.067,12.8-2.133c4.267-1.067,8.533-2.133,11.733-3.2c4.267-1.067,7.467-2.133,10.667-4.267
		s6.4-3.2,8.533-4.267s4.267-3.2,6.4-4.267c3.2-2.133,6.4-3.2,6.4-3.2s0,3.2-3.2,6.4c-3.2,3.2-7.467,8.533-13.867,12.8
		c-3.2,2.133-6.4,4.267-10.667,6.4c-4.267,2.133-8.533,4.267-12.8,5.333c-9.6,3.2-19.2,4.267-29.867,5.333
		c-10.667,0-20.267,0-29.867-2.133c-9.6-1.067-18.133-4.267-24.533-7.467C153.163,346.359,144.63,339.959,144.63,339.959z"/>
	<path style="fill:#F8B64C;" d="M108.363,282.359c0,0-1.067-2.133-3.2-5.333c-2.133-3.2-5.333-8.533-7.467-16
		c-2.133-7.467-4.267-14.933-4.267-24.533c0-9.6,1.067-19.2,3.2-28.8c3.2-9.6,6.4-18.133,10.667-26.667
		c4.267-7.467,9.6-14.933,13.867-20.267c9.6-10.667,18.133-16,18.133-16s-1.067,2.133-3.2,5.333
		c-2.133,3.2-5.333,8.533-8.533,13.867c-6.4,11.733-13.867,28.8-18.133,45.867c-2.133,8.533-3.2,17.067-4.267,25.6
		c-1.067,8.533-1.067,16,0,22.4c1.067,6.4,1.067,12.8,2.133,16C107.296,279.159,108.363,282.359,108.363,282.359z"/>
</g>
<path style="fill:#40596B;" d="M512.63,250.359c-24.533-1.067-57.6,11.733-57.6,11.733c-1.067,0-1.067,0-2.133,0
	c22.4,126.933-67.2,203.733-96,224c5.333,6.4,9.6,9.6,9.6,9.6l4.267,17.067H512.63V250.359z"/>
<g>
	<path style="opacity:0.1;fill:#231F20;enable-background:new    ;" d="M322.763,378.359c0,0-64,27.733-136.533,23.467
		c0,0-38.4-6.4-73.6-23.467c0,0-81.067-6.4-100.267-61.867c-7.467-21.333,27.733-103.467,27.733-103.467
		c-25.6,44.8-45.867,90.667-38.4,114.133c18.133,54.4,100.267,61.867,100.267,61.867c35.2,17.067,73.6,23.467,73.6,23.467
		c72.533,4.267,136.533-23.467,136.533-23.467c-1.067,43.733,28.8,81.067,44.8,98.133c8.533-6.4,22.4-17.067,36.267-32
		c-10.667,9.6-19.2,17.067-25.6,21.333C351.563,459.425,321.696,422.092,322.763,378.359z"/>
	<path style="opacity:0.1;fill:#231F20;enable-background:new    ;" d="M452.896,262.092c-27.733,8.533-42.667-10.667-42.667-10.667
		c-62.933-44.8-132.267,5.333-132.267,5.333c-78.933-57.6-140.8,16-140.8,16c6.4-9.6,10.667-55.467,10.667-55.467
		c6.4-57.6,30.933-108.8,30.933-108.8c0-3.2,1.067-5.333,2.133-7.467c-5.333,3.2-11.733,8.533-12.8,18.133
		c0,0-23.467,51.2-30.933,108.8c0,0-4.267,45.867-10.667,55.467c0,0,61.867-73.6,140.8-16c0,0,70.4-50.133,132.267-5.333
		c0,0,14.933,18.133,42.667,10.667c16,89.6-24.533,154.667-59.733,192C419.83,430.625,471.03,362.359,452.896,262.092z"/>
</g>
<path style="fill:#F1543F;" d="M448.63,95.692c-18.133,0-35.2,7.467-45.867,20.267c-11.733-11.733-27.733-20.267-45.867-20.267
	c-35.2,0-64,28.8-64,64c0,54.4,110.933,136.533,110.933,136.533s108.8-82.133,108.8-136.533
	C512.63,123.425,483.83,95.692,448.63,95.692z"/>
<path style="fill:#FF7058;" d="M401.696,267.425c-40.533-32-87.467-81.067-87.467-107.733c0-22.4,18.133-41.6,41.6-41.6
	c11.733,0,22.4,4.267,29.867,12.8l16,17.067l16-17.067c7.467-8.533,18.133-12.8,29.867-12.8c22.4,0,41.6,18.133,41.6,41.6
	C489.163,185.292,441.163,235.425,401.696,267.425z"/>
<g>
</g>
<g>
</g>
<g>
</g>
<g>
</g>
<g>
</g>
<g>
</g>
<g>
</g>
<g>
</g>
<g>
</g>
<g>
</g>
<g>
</g>
<g>
</g>
<g>
</g>
<g>
</g>
<g>
</g>
</svg>
