<svg xmlns="http://www.w3.org/2000/svg" viewBox="0 0 504.123 504.123"><path d="M95.547 188.731c-29.775-19.779-60.345-37.179-65.78-31.098-5.293 5.963 14.517 33.178 37.006 59.872l28.774-28.774zm198.309 25.695c21.402-25.679 39.526-51.058 34.438-56.793-5.222-5.845-33.713 10.035-62.377 28.853l27.939 27.94z" fill="#d39959"/><path d="M155.183 361.913c0 19.503-15.817 124.668-35.336 124.668-19.495 0-35.304-105.173-35.304-124.668 0-19.495 15.817-35.32 35.304-35.32 19.519 0 35.336 15.825 35.336 35.32zm118.358 0c0 19.503-15.817 124.668-35.336 124.668-19.495 0-35.304-105.173-35.304-124.668 0-19.495 15.817-35.32 35.304-35.32 19.52 0 35.336 15.825 35.336 35.32z" fill="#960808"/><g fill="#f28e0a"><path d="M264.357 247.958c29.499-31.902 71.357-81.959 63.937-90.325-7.136-7.995-57.754 24.608-92.861 49.837 11.721 10.595 21.559 24.434 28.924 40.488zm-141.73-40.488c-35.107-25.23-85.725-57.832-92.861-49.837-7.412 8.365 34.446 58.423 63.937 90.325 7.365-16.046 17.204-29.885 28.924-40.488z"/><path d="M240.521 272.242c-17.865 15.896-40.48 19.645-50.507 8.381-10.027-11.28-3.663-33.312 14.218-49.231 5.167-4.592 16.904-13.651 31.201-23.93-16.045-14.494-35.462-23.001-56.399-23.001s-40.353 8.515-56.399 23.001c14.289 10.279 26.033 19.338 31.2 23.93 17.881 15.919 24.245 37.951 14.218 49.231-10.027 11.264-32.65 7.507-50.507-8.381-4.647-4.128-13.485-13.099-23.828-24.292-9.027 19.684-14.32 42.646-14.32 67.293 0 126.33 44.615 84.259 99.643 84.259 55.044 0 99.643 42.071 99.643-84.259 0-24.647-5.293-47.616-14.32-67.293-10.357 11.193-19.195 20.165-23.843 24.292z"/><path d="M190.014 280.631c10.027 11.264 32.65 7.507 50.507-8.381 4.647-4.128 13.485-13.099 23.828-24.292-7.365-16.045-17.203-29.893-28.924-40.487-14.289 10.279-26.033 19.338-31.201 23.93-17.872 15.919-24.237 37.95-14.21 49.23zm-72.475-8.389c17.865 15.896 40.48 19.645 50.507 8.381 10.027-11.28 3.663-33.312-14.218-49.231-5.167-4.592-16.904-13.651-31.2-23.93-11.721 10.602-21.559 24.45-28.924 40.487 10.35 11.194 19.188 20.166 23.835 24.293z"/></g><path d="M159.602 487.219c0 14.935-17.802 16.904-39.739 16.904s-39.739-1.961-39.739-16.904 17.802-35.509 39.739-35.509 39.739 20.567 39.739 35.509z" fill="#ff7300"/><path d="M159.602 487.219c0 14.935-17.802 16.904-39.739 16.904s-39.739-1.961-39.739-16.904" fill="#ff4800"/><path d="M277.952 487.219c0 14.935-17.802 16.904-39.739 16.904-21.937 0-39.739-1.961-39.739-16.904s17.802-35.509 39.739-35.509 39.739 20.567 39.739 35.509z" fill="#ff7300"/><path d="M277.952 487.219c0 14.935-17.802 16.904-39.739 16.904-21.937 0-39.739-1.961-39.739-16.904" fill="#ff4800"/><path d="M307.987 124.258c0 63.008-57.738 94.681-128.937 94.681-71.215 0-128.969-31.673-128.969-94.681C50.073 61.235 107.827 0 179.042 0c71.207 0 128.945 61.235 128.945 124.258z" fill="#efc286"/><path d="M307.987 124.258c0 63.008-57.738 94.681-128.937 94.681-71.215 0-128.969-31.673-128.969-94.681" fill="#e8b374"/><path d="M157.766 178.397a2.377 2.377 0 0 1-1.725-.717c-5.632-5.624-13.107-8.72-21.047-8.72h-.016c-7.94 0-15.399 3.104-21 8.712-.953.953-2.489.977-3.434.008a2.402 2.402 0 0 1-.032-3.419c6.538-6.546 15.218-10.161 24.458-10.161h.016c9.263 0 17.952 3.592 24.505 10.145.937.937.937 2.505 0 3.434-.464.497-1.079.718-1.725.718zm77.155 0c.599 0 1.229-.221 1.709-.717 5.632-5.624 13.107-8.72 21.047-8.72h.016c7.94 0 15.415 3.104 21.016 8.712a2.405 2.405 0 0 0 3.434.008c.953-.922.969-2.458.016-3.419-6.506-6.546-15.218-10.161-24.458-10.161h-.016c-9.248 0-17.936 3.592-24.505 10.145-.922.937-.922 2.505 0 3.434.481.497 1.095.718 1.741.718z" fill="#232728"/><path d="M475.214 431.309c0 36.974-37.384 48.908-83.511 48.908s-83.511-11.934-83.511-48.908c0-36.982 37.384-66.954 83.511-66.954s83.511 29.972 83.511 66.954z" fill="#e09b00"/><path d="M308.2 431.309c0-36.982 37.384-66.954 83.511-66.954" fill="#efb600"/><path d="M391.711 364.355c46.119 0 83.511 29.972 83.511 66.954 0 36.974-37.384 48.908-83.511 48.908" fill="#db8c00"/><path d="M391.711 364.355c46.119 0 83.511 29.972 83.511 66.954" fill="#e09b00"/><path d="M453.742 346.466c0 27.467-27.766 36.328-62.031 36.328s-62.047-8.862-62.047-36.328 27.782-49.727 62.047-49.727 62.031 22.261 62.031 49.727z" fill="#f4c237"/><path d="M453.742 346.466c0 27.467-27.766 36.328-62.031 36.328s-62.047-8.862-62.047-36.328 27.782-44.772 62.047-44.772 62.031 17.306 62.031 44.772z" fill="#efb600"/><path d="M453.742 346.466c0 27.467-27.766 36.328-62.031 36.328s-62.047-8.862-62.047-36.328" fill="#eda900"/><circle cx="364.118" cy="330.949" r="6.774" fill="#2d2612"/><path d="M357.336 330.949c0 .685.142 1.339.331 1.961.622.181 1.284.323 1.961.323 3.742 0 6.766-3.041 6.766-6.774 0-.685-.126-1.339-.315-1.961-.622-.197-1.268-.331-1.961-.331-3.749-.008-6.782 3.033-6.782 6.782z" fill="#443b23"/><circle cx="419.28" cy="330.949" r="6.774" fill="#2d2612"/><path d="M412.506 330.949c0 .685.142 1.339.323 1.961.63.181 1.276.323 1.969.323 3.742 0 6.766-3.041 6.766-6.774 0-.685-.142-1.339-.323-1.961-.614-.197-1.26-.331-1.953-.331-3.749-.008-6.782 3.033-6.782 6.782z" fill="#443b23"/><path d="M406.165 341.772l-13.367-9.452a1.855 1.855 0 0 0-2.182 0l-13.375 9.452c-.52.37-.819.977-.796 1.615.016.638.37 1.221.906 1.544l13.367 8.042c.307.181.646.276.985.276.323 0 .67-.095.969-.276l13.375-8.042a1.9 1.9 0 0 0 .914-1.544 1.86 1.86 0 0 0-.796-1.615z" fill="#d15400"/><path d="M406.165 341.772l-13.367-9.452a1.855 1.855 0 0 0-2.182 0l-13.375 9.452c-.52.37-.819.977-.796 1.615.016.638.37 1.221.906 1.544l13.367 2.521c.307.173.646.268.985.268.323 0 .67-.095.969-.268l13.375-2.521a1.9 1.9 0 0 0 .914-1.544 1.86 1.86 0 0 0-.796-1.615z" fill="#ff6d00"/><ellipse cx="374.311" cy="470.174" rx="10.524" ry="3.308" fill="#db8c00"/><g fill="#d15400"><path d="M380.148 489.362a5.68 5.68 0 0 1-5.679 5.671 5.672 5.672 0 0 1-5.671-5.671v-17.66c0-3.127 2.536-1.89 5.671-1.89 3.127 0 5.679-1.237 5.679 1.89v17.66z"/><path d="M354.445 504.123a3.777 3.777 0 0 1-3.781-3.781c0-6.065 4.931-10.988 10.988-10.988h13.926a3.777 3.777 0 1 1 0 7.554h-13.926a3.423 3.423 0 0 0-3.419 3.426 3.783 3.783 0 0 1-3.788 3.789z"/><path d="M365.323 504.123a3.777 3.777 0 0 1-3.781-3.781c0-6.065 4.931-10.988 10.988-10.988h10.106c2.087 0 3.773 1.694 3.773 3.781s-1.694 3.773-3.773 3.773H372.53a3.423 3.423 0 0 0-3.419 3.426 3.788 3.788 0 0 1-3.788 3.789z"/></g><ellipse cx="409.048" cy="470.174" rx="10.524" ry="3.308" fill="#e09b00"/><g fill="#d15400"><path d="M403.266 489.362a5.68 5.68 0 0 0 5.679 5.671 5.672 5.672 0 0 0 5.671-5.671v-17.66c0-3.127-2.536-1.89-5.671-1.89-3.127 0-5.679-1.237-5.679 1.89v17.66z"/><path d="M428.969 504.123a3.777 3.777 0 0 0 3.781-3.781c0-6.065-4.931-10.988-10.996-10.988h-13.919a3.777 3.777 0 0 0 0 7.554h13.919a3.433 3.433 0 0 1 3.426 3.426 3.79 3.79 0 0 0 3.789 3.789z"/><path d="M418.091 504.123a3.777 3.777 0 0 0 3.781-3.781c0-6.065-4.939-10.988-10.988-10.988h-10.106a3.777 3.777 0 1 0 0 7.554h10.106a3.432 3.432 0 0 1 3.419 3.426 3.789 3.789 0 0 0 3.788 3.789zM220.388 322.087c0-11.28-7.428-21.11-18.542-26.695 5.191-2.662 8.413-6.908 8.413-13.312 0-12.958-13.099-23.457-29.263-23.457-16.156 0-29.263 10.5-29.263 23.457 0 6.404 3.222 10.657 8.413 13.312-11.106 5.585-18.542 15.415-18.542 26.695 0 14.415 12.107 20.693 28.577 22.457v4.931h-3.371a5.179 5.179 0 0 0-5.175 5.175c0 .985.796 1.788 1.788 1.788.985 0 1.788-.803 1.788-1.788 0-.89.717-1.615 1.607-1.615h.268c-.165.512-.323 1.04-.323 1.615 0 .985.803 1.788 1.788 1.788.992 0 1.788-.803 1.788-1.788 0-.89.725-1.615 1.615-1.615h4.774c.985 0 1.78-.803 1.78-1.78a1.78 1.78 0 0 0-1.78-1.788h-1.182v-4.506c1.804.095 3.592.189 5.459.189 1.859 0 3.663-.102 5.443-.189v4.506h-1.166c-.985 0-1.788.796-1.788 1.788 0 .977.803 1.78 1.788 1.78h4.773c.89 0 1.615.725 1.615 1.615 0 .985.803 1.788 1.788 1.788s1.788-.803 1.788-1.788c0-.575-.158-1.103-.323-1.615h.268c.882 0 1.607.725 1.607 1.615 0 .985.803 1.788 1.796 1.788a1.79 1.79 0 0 0 1.78-1.788 5.179 5.179 0 0 0-5.175-5.175h-3.395v-4.939c16.453-1.756 28.584-8.026 28.584-22.449z"/></g><path d="M179.042 0C107.827 0 50.073 61.235 50.073 124.258c0 5.254.536 10.208 1.323 15.021l.488 1.182 32.492-54.154 49.231 16.738v-12.8l31.508 17.723 4.923-15.754 82.708 39.385.985-48.246L275.392 106l.985-25.6 18.708 18.708 2.954-12.8 6.538 11.689C291.398 45.269 240.246 0 179.042 0z" fill="#26bc30"/></svg>