<svg xmlns="http://www.w3.org/2000/svg" viewBox="0 0 103.914 103.914"><g fill-rule="evenodd" clip-rule="evenodd"><path d="M101.822 69.019H2.368a1.16 1.16 0 0 0-1.16 1.16v7.473c0 .642.519 1.16 1.16 1.16h4.62v7.366a5.547 5.547 0 0 0 5.546 5.546h3.694a5.547 5.547 0 0 0 5.546-5.546v-7.366h63.563v7.366a5.549 5.549 0 0 0 5.548 5.546h3.694a5.548 5.548 0 0 0 5.545-5.546v-7.366h1.696a1.16 1.16 0 0 0 1.159-1.16V70.18a1.158 1.158 0 0 0-1.157-1.161z" fill="#fc5a29"/><path d="M85.302 78.813v7.366a5.55 5.55 0 0 0 5.546 5.546h3.694a5.548 5.548 0 0 0 5.547-5.546v-7.366H85.302zm-78.351 0v7.366a5.548 5.548 0 0 0 5.546 5.546h3.694a5.548 5.548 0 0 0 5.547-5.546v-7.366H6.951z" fill="#5c3f25"/><path d="M94.805 43.802c-3.226-14.019-14.09-30.487-17.119-30.487-1.506 0-13.482-1.126-25.591-1.126-12.217 0-24.563 1.126-25.868 1.126-2.596 0-13.891 16.467-17.118 30.487C-1.827 45.917.096 64.596.184 65.409a1.16 1.16 0 0 0 1.154 1.033h.002l50.618-.122 50.617.122h.003a1.16 1.16 0 0 0 1.153-1.033c.087-.813 2.011-19.491-8.926-21.607z" fill="#76decb"/><circle cx="14.381" cy="55.746" r="5.155" fill="#f9af46"/><path d="M17.639 44.47a.39.39 0 0 1-.31-.154l-.062-.34c.267-.926 6.632-22.719 11.215-24.312 4.454-1.548 22.698-1.672 23.473-1.676-.003 0 1.853-.033 4.566-.033 8.559 0 18.713.401 20.623 1.762C79.92 21.7 87.67 43.045 87.979 43.959a.38.38 0 0 1-.053.348.383.383 0 0 1-.312.162H17.639z" fill="#d9fff8"/><path d="M89.533 60.9a5.152 5.152 0 0 1-5.154-5.153 5.153 5.153 0 1 1 10.308 0 5.152 5.152 0 0 1-5.154 5.153z" fill="#f9af46"/><path fill="#d9fff8" d="M37.02 53.6h31.212v7.301H37.02z"/><path fill="#fc5a29" d="M4.041 37.734h13.598v6.734H4.041zm83.886 0h13.597v6.734H87.927z"/><path d="M24.701 44.47l43.95-26.19c4.167.265 7.483.717 8.493 1.437.37.266.831.878 1.35 1.738L39.836 44.47H24.701zm-6.43-3.777l38.067-22.739h.184c2.366 0 4.854.03 7.256.104L19.49 44.47h-1.85a.39.39 0 0 1-.31-.154l-.062-.34c.059-.207.423-1.454 1.003-3.283zm28.193 3.777l33.615-20.023a99.51 99.51 0 0 1 1.611 3.525L54.028 44.47h-7.564z" fill="#fff"/></g></svg>