<svg xmlns="http://www.w3.org/2000/svg" viewBox="0 0 58.007 58.007"><path d="M52.003 29.211v1.238c0 6.932-11.641 12.551-26 12.551-7.926 0-15.019-1.714-19.788-4.414C7.823 44.831 18.751 50 32.003 50c14.359 0 26-6.068 26-13 0-3.048-2.256-5.734-6-7.789" fill="#fcc62d"/><path d="M32.003 50c-14.359 0-26-6.068-26-13v8.448c0 6.932 11.641 12.552 26 12.552s26-5.62 26-12.552V37c0 6.932-11.641 13-26 13" fill="#e4af18"/><path d="M9.003 51.349c.59.539 1.259 1.055 2 1.545v-8.291a16.617 16.617 0 0 1-2-1.603v8.349zm44-6.746v8.291a16.157 16.157 0 0 0 2-1.545V43a16.461 16.461 0 0 1-2 1.603m-40 9.457c.632.327 1.3.636 2 .929v-8.193c-.7-.308-1.368-.633-2-.975v8.239zm36 .928c.7-.292 1.368-.602 2-.929V45.82c-.632.342-1.3.668-2 .975v8.193zm-32 .757a36.69 36.69 0 0 0 2 .619V48.25a36.617 36.617 0 0 1-2-.656v8.151zm28 .619a36.69 36.69 0 0 0 2-.619v-8.151c-.646.233-1.313.452-2 .656v8.114zm-23 .72c.653.132 1.321.25 2 .355v-8.044a44.035 44.035 0 0 1-2-.379v8.068zm18 .355a47.17 47.17 0 0 0 2-.355v-8.069c-.653.14-1.321.266-2 .38v8.044zm-12 .46c.658.049 1.326.083 2 .107v-8.003a47.996 47.996 0 0 1-2-.115v8.011zm6 .108a53.876 53.876 0 0 0 2-.107v-8.012c-.658.053-1.326.089-2 .116v8.003z" fill="#ce9912"/><path d="M26.003 34.993c-14.359 0-26-6.068-26-13v8.448c0 6.932 11.641 12.552 26 12.552s26-5.62 26-12.552v-8.448c0 6.932-11.641 13-26 13" fill="#e4af18"/><path d="M3.003 36.342c.59.539 1.259 1.055 2 1.545v-8.291a16.711 16.711 0 0 1-2-1.602v8.348zm44-6.746v8.291a16.157 16.157 0 0 0 2-1.545v-8.349a16.461 16.461 0 0 1-2 1.603m-40 9.457c.632.327 1.3.636 2 .929v-8.193c-.7-.308-1.368-.633-2-.975v8.239zm36 .928a26.45 26.45 0 0 0 2-.929v-8.239c-.632.342-1.3.668-2 .975v8.193zm-32 .757a36.69 36.69 0 0 0 2 .619v-8.114a36.617 36.617 0 0 1-2-.656v8.151zm28 .619a36.69 36.69 0 0 0 2-.619v-8.151c-.646.233-1.313.452-2 .656v8.114zm-23 .72c.653.132 1.321.25 2 .355v-8.044a44.035 44.035 0 0 1-2-.379v8.068zm18 .356a47.17 47.17 0 0 0 2-.355v-8.069c-.653.14-1.321.266-2 .38v8.044zm-12 .46c.658.049 1.326.083 2 .107v-8.003a47.996 47.996 0 0 1-2-.115v8.011zm6 .107a53.876 53.876 0 0 0 2-.107v-8.012c-.658.053-1.326.089-2 .116V43z" fill="#ce9912"/><path d="M51.32 33.302C48.643 38.858 38.329 43 26.003 43c-4.604 0-8.926-.58-12.677-1.593 3.628 2.463 10.085 4.559 18.677 4.559 13.682 0 22-5.311 22-8.966 0-1.22-.939-2.514-2.683-3.698M31.003 33c-14.359 0-26-5.62-26-12.552v-5.652c-3.141 1.969-5 4.438-5 7.204 0 6.932 11.641 13 26 13 6.914 0 13.192-1.409 17.849-3.642C40.061 32.401 35.678 33 31.003 33" fill="#ffd949"/><path d="M31.003 24.993c-14.359 0-26-6.068-26-13v8.448c0 6.932 11.641 12.552 26 12.552s26-5.62 26-12.552v-8.448c0 6.932-11.641 13-26 13" fill="#e4af18"/><path d="M8.003 26.342c.59.539 1.259 1.055 2 1.545v-8.291a16.711 16.711 0 0 1-2-1.602v8.348zm44-6.746v8.291a16.157 16.157 0 0 0 2-1.545v-8.349a16.461 16.461 0 0 1-2 1.603m-40 9.457c.632.327 1.3.636 2 .929v-8.193c-.7-.308-1.368-.633-2-.975v8.239zm36 .928a26.45 26.45 0 0 0 2-.929v-8.239c-.632.342-1.3.668-2 .975v8.193zm-32 .757a36.69 36.69 0 0 0 2 .619v-8.114a36.617 36.617 0 0 1-2-.656v8.151zm28 .619a36.69 36.69 0 0 0 2-.619v-8.151c-.646.233-1.313.452-2 .656v8.114zm-23 .72c.653.132 1.321.25 2 .355v-8.044a44.035 44.035 0 0 1-2-.379v8.068zm18 .356a47.17 47.17 0 0 0 2-.355v-8.069c-.653.14-1.321.266-2 .38v8.044zm-12 .46c.658.049 1.326.083 2 .107v-8.003a47.996 47.996 0 0 1-2-.115v8.011zm6 .107a53.876 53.876 0 0 0 2-.107v-8.012c-.658.053-1.326.089-2 .116V33z" fill="#ce9912"/><path d="M57.003 12c0 6.932-11.641 13-26 13s-26-6.068-26-13 11.641-12 26-12 26 5.068 26 12" fill="#fcc62d"/><path d="M31.003 20.966c-13.682 0-22-5.31-22-8.966 0-3.655 8.318-9 22-9s22 5.345 22 9c0 3.656-8.318 8.966-22 8.966" fill="#ffd949"/><path d="M37.784 13.359c.82-.174 1.301-.68 1.124-1.257l-.19-.616c-.139-.453-.68-.831-1.343-1.019-.902-1.927-3.202-2.625-6.618-2.625-.162 0-.32.004-.476.01-1.166.048-2.329-.064-3.236-.396-.37-.135-.671-.276-.87-.423-.09-.066-.308-.024-.308.06 0 .146.011.319.043.511.124.747-.024.635-.762 1.38a5.04 5.04 0 0 0-1.016 1.486c-.659.189-1.197.566-1.336 1.017l-.19.616c-.177.577.304 1.083 1.124 1.257.234 1.476 1.237 2.772 3.424 3.486l-.12 1.037c-.032.277-.271.533-.619.659l-4.411 1.592c2.576.54 5.512.866 8.753.866 3.196 0 6.095-.317 8.645-.842l-4.315-1.613c-.341-.128-.575-.382-.606-.654l-.121-1.045c2.187-.714 3.19-2.011 3.424-3.487" fill="#f0c41b"/></svg>