<svg xmlns="http://www.w3.org/2000/svg" viewBox="0 0 512.759 512.759"><path d="M452.896 262.092c-27.733 8.533-42.667-10.667-42.667-10.667-62.933-44.8-132.267 5.333-132.267 5.333-78.933-57.6-140.8 16-140.8 16 6.4-9.6 10.667-55.467 10.667-55.467 6.4-57.6 30.933-108.8 30.933-108.8 4.267-24.533 32-21.333 32-21.333 12.8 9.6 27.733 10.667 27.733 10.667 25.6 7.467 30.933 0 30.933 0 4.267 16 13.867 9.6 13.867 9.6 19.2-9.6 5.333-25.6 5.333-25.6-7.467-8.533 4.267-12.8 4.267-12.8 10.667-4.267 7.467-10.667 7.467-10.667l-25.6-57.6c-25.6-5.333-83.2 19.2-83.2 19.2-49.067 10.667-68.267 68.267-68.267 68.267S-15.37 270.625 2.763 326.092c18.133 54.4 100.267 61.867 100.267 61.867 35.2 17.067 73.6 23.467 73.6 23.467 72.533 4.267 136.533-23.467 136.533-23.467-1.067 43.733 28.8 81.067 44.8 98.133 27.733-20.267 117.333-96 94.933-224z" fill="#ffd15c"/><path d="M292.896 278.092s3.2 1.067 7.467 4.267a108.34 108.34 0 0 1 17.067 16c5.333 7.467 10.667 18.133 14.933 29.867s6.4 23.467 10.667 34.133c7.467 22.4 21.333 42.667 34.133 54.4 6.4 6.4 12.8 10.667 17.067 12.8 4.267 2.133 7.467 3.2 7.467 3.2s-3.2 0-8.533-1.067c-5.333-1.067-13.867-3.2-21.333-9.6-8.533-5.333-17.067-12.8-24.533-22.4-7.467-9.6-13.867-21.333-18.133-33.067s-6.4-25.6-8.533-36.267c-2.133-10.667-6.4-20.267-9.6-28.8-4.267-8.533-7.467-14.933-11.733-18.133-3.203-4.266-6.403-5.333-6.403-5.333zM144.63 339.959s9.6 2.133 24.533 4.267c14.933 2.133 34.133 4.267 52.267 3.2 4.267 0 9.6 0 13.867-1.067s9.6-1.067 12.8-2.133c4.267-1.067 8.533-2.133 11.733-3.2 4.267-1.067 7.467-2.133 10.667-4.267s6.4-3.2 8.533-4.267 4.267-3.2 6.4-4.267c3.2-2.133 6.4-3.2 6.4-3.2s0 3.2-3.2 6.4-7.467 8.533-13.867 12.8c-3.2 2.133-6.4 4.267-10.667 6.4-4.267 2.133-8.533 4.267-12.8 5.333-9.6 3.2-19.2 4.267-29.867 5.333-10.667 0-20.267 0-29.867-2.133-9.6-1.067-18.133-4.267-24.533-7.467-13.866-5.332-22.399-11.732-22.399-11.732zm-36.267-57.6s-1.067-2.133-3.2-5.333-5.333-8.533-7.467-16c-2.133-7.467-4.267-14.933-4.267-24.533 0-9.6 1.067-19.2 3.2-28.8 3.2-9.6 6.4-18.133 10.667-26.667 4.267-7.467 9.6-14.933 13.867-20.267 9.6-10.667 18.133-16 18.133-16s-1.067 2.133-3.2 5.333-5.333 8.533-8.533 13.867c-6.4 11.733-13.867 28.8-18.133 45.867-2.133 8.533-3.2 17.067-4.267 25.6-1.067 8.533-1.067 16 0 22.4 1.067 6.4 1.067 12.8 2.133 16 0 5.333 1.067 8.533 1.067 8.533z" fill="#f8b64c"/><path d="M512.63 250.359c-24.533-1.067-57.6 11.733-57.6 11.733h-2.133c22.4 126.933-67.2 203.733-96 224 5.333 6.4 9.6 9.6 9.6 9.6l4.267 17.067H512.63v-262.4z" fill="#40596b"/><g fill="#231f20"><path d="M322.763 378.359s-64 27.733-136.533 23.467c0 0-38.4-6.4-73.6-23.467 0 0-81.067-6.4-100.267-61.867-7.467-21.333 27.733-103.467 27.733-103.467-25.6 44.8-45.867 90.667-38.4 114.133 18.133 54.4 100.267 61.867 100.267 61.867 35.2 17.067 73.6 23.467 73.6 23.467 72.533 4.267 136.533-23.467 136.533-23.467-1.067 43.733 28.8 81.067 44.8 98.133 8.533-6.4 22.4-17.067 36.267-32-10.667 9.6-19.2 17.067-25.6 21.333-16-17.066-45.867-54.399-44.8-98.132z" opacity=".1"/><path d="M452.896 262.092c-27.733 8.533-42.667-10.667-42.667-10.667-62.933-44.8-132.267 5.333-132.267 5.333-78.933-57.6-140.8 16-140.8 16 6.4-9.6 10.667-55.467 10.667-55.467 6.4-57.6 30.933-108.8 30.933-108.8 0-3.2 1.067-5.333 2.133-7.467-5.333 3.2-11.733 8.533-12.8 18.133 0 0-23.467 51.2-30.933 108.8 0 0-4.267 45.867-10.667 55.467 0 0 61.867-73.6 140.8-16 0 0 70.4-50.133 132.267-5.333 0 0 14.933 18.133 42.667 10.667 16 89.6-24.533 154.667-59.733 192 37.334-34.133 88.534-102.399 70.4-202.666z" opacity=".1"/></g><path d="M448.63 95.692c-18.133 0-35.2 7.467-45.867 20.267-11.733-11.733-27.733-20.267-45.867-20.267-35.2 0-64 28.8-64 64 0 54.4 110.933 136.533 110.933 136.533s108.8-82.133 108.8-136.533c.001-36.267-28.799-64-63.999-64z" fill="#f1543f"/><path d="M401.696 267.425c-40.533-32-87.467-81.067-87.467-107.733 0-22.4 18.133-41.6 41.6-41.6 11.733 0 22.4 4.267 29.867 12.8l16 17.067 16-17.067c7.467-8.533 18.133-12.8 29.867-12.8 22.4 0 41.6 18.133 41.6 41.6 0 25.6-48 75.733-87.467 107.733z" fill="#ff7058"/></svg>